<svg xmlns="http://www.w3.org/2000/svg" viewBox="0 0 1024 1024">
  <rect width="1024" height="1024" rx="180" fill="#0b0f15"/>
  <g transform="translate(160,290)" fill="#0b1220" stroke="#1a2740" stroke-width="8">
    <g transform="translate(0,0)"><rect width="120" height="220" rx="18"/><rect x="30" y="40" width="60" height="80" rx="8" fill="#22c55e"/></g>
    <g transform="translate(140,0)"><rect width="120" height="220" rx="18"/><rect x="30" y="100" width="60" height="80" rx="8" fill="#18263f"/></g>
    <g transform="translate(280,0)"><rect width="120" height="220" rx="18"/><rect x="30" y="40" width="60" height="80" rx="8" fill="#22c55e"/></g>
    <g transform="translate(420,0)"><rect width="120" height="220" rx="18"/><rect x="30" y="100" width="60" height="80" rx="8" fill="#18263f"/></g>
    <g transform="translate(560,0)"><rect width="120" height="220" rx="18"/><rect x="30" y="40" width="60" height="80" rx="8" fill="#22c55e"/></g>
  </g>
  <g transform="translate(640,640)">
    <rect x="0" y="0" width="280" height="200" rx="36" fill="#122034" stroke="#233148" stroke-width="6"/>
    <text x="140" y="136" font-size="120" text-anchor="middle" fill="#e7eaf0" font-family="Inter, system-ui">DIP</text>
  </g>
</svg>
